<?xml version="1.0" encoding="UTF-8" standalone="no"?>
<!DOCTYPE svg PUBLIC "-//W3C//DTD SVG 1.1//EN" "http://www.w3.org/Graphics/SVG/1.1/DTD/svg11.dtd">
<!-- Generated by graphviz version 2.40.1 (20161225.0304)
 -->
<!-- Title: G Pages: 1 -->
<svg width="540pt" height="600pt" viewBox="0.00 0.00 539.60 599.60" xmlns="http://www.w3.org/2000/svg" xmlns:xlink="http://www.w3.org/1999/xlink">
<g id="graph0" class="graph" transform="scale(1 1) rotate(0) translate(4 595.6)">
<title>G</title>
<polygon fill="#ffffff" stroke="transparent" points="-4,4 -4,-595.6 535.5976,-595.6 535.5976,4 -4,4"/>
<g id="clust1" class="cluster">
<title>cluster_bool</title>
<polygon fill="none" stroke="#000000" points="104.5203,-256.4 104.5203,-337.2 178.5203,-337.2 178.5203,-256.4 104.5203,-256.4"/>
<text text-anchor="middle" x="141.5203" y="-320.6" font-family="Liberation Mono" font-size="14.00" fill="#000000">Bool type</text>
</g>
<g id="clust2" class="cluster">
<title>cluster_numbers</title>
<polygon fill="none" stroke="#000000" points="53.5203,-8 53.5203,-178.4 485.5203,-178.4 485.5203,-8 53.5203,-8"/>
<text text-anchor="middle" x="269.5203" y="-161.8" font-family="Liberation Mono" font-size="14.00" fill="#000000">Number types</text>
</g>
<g id="clust3" class="cluster">
<title>cluster_finite</title>
<polygon fill="none" stroke="#000000" points="149.5203,-18 149.5203,-143.6 475.5203,-143.6 475.5203,-18 149.5203,-18"/>
<text text-anchor="middle" x="312.5203" y="-127" font-family="Liberation Mono" font-size="14.00" fill="#000000">Finite</text>
</g>
<g id="clust4" class="cluster">
<title>cluster_finite_no</title>
<polygon fill="none" stroke="#000000" points="159.5203,-28 159.5203,-108.8 305.5203,-108.8 305.5203,-28 159.5203,-28"/>
<text text-anchor="middle" x="232.5203" y="-92.2" font-family="Liberation Mono" font-size="14.00" fill="#000000">Non Floating</text>
</g>
<g id="clust6" class="cluster">
<title>cluster_finite_yes</title>
<polygon fill="none" stroke="#000000" points="315.5203,-28 315.5203,-108.8 465.5203,-108.8 465.5203,-28 315.5203,-28"/>
<text text-anchor="middle" x="390.5203" y="-92.2" font-family="Liberation Mono" font-size="14.00" fill="#000000">Floating</text>
</g>
<g id="clust8" class="cluster">
<title>cluster_infinite</title>
<polygon fill="none" stroke="#000000" points="63.5203,-28 63.5203,-108.8 139.5203,-108.8 139.5203,-28 63.5203,-28"/>
<text text-anchor="middle" x="101.5203" y="-92.2" font-family="Liberation Mono" font-size="14.00" fill="#000000">Infinite</text>
</g>
<g id="clust9" class="cluster">
<title>cluster_ord</title>
<polygon fill="#d3d3d3" stroke="#d3d3d3" points="108.5203,-430 108.5203,-583.6 178.5203,-583.6 178.5203,-430 108.5203,-430"/>
<text text-anchor="middle" x="143.5203" y="-567" font-family="Liberation Mono" font-size="14.00" fill="#000000">Ordering</text>
</g>
<g id="clust10" class="cluster">
<title>cluster_bounds</title>
<polygon fill="#d3d3d3" stroke="#d3d3d3" points="35.5203,-345.2 35.5203,-422 143.5203,-422 143.5203,-345.2 35.5203,-345.2"/>
<text text-anchor="middle" x="89.5203" y="-405.4" font-family="Liberation Mono" font-size="14.00" fill="#000000">Bounds</text>
</g>
<g id="clust11" class="cluster">
<title>cluster_enum</title>
<polygon fill="#d3d3d3" stroke="#d3d3d3" points="186.5203,-186.4 186.5203,-506.8 498.5203,-506.8 498.5203,-186.4 186.5203,-186.4"/>
<text text-anchor="middle" x="342.5203" y="-490.2" font-family="Liberation Mono" font-size="14.00" fill="#000000">Numeric</text>
</g>
<!-- Bool -->
<g id="node1" class="node">
<title>Bool</title>
<polygon fill="none" stroke="#000000" points="168.5203,-302.4 114.5203,-302.4 114.5203,-266.4 168.5203,-266.4 168.5203,-302.4"/>
<text text-anchor="middle" x="141.5203" y="-280.2" font-family="Liberation Mono" font-size="14.00" fill="#000000">Bool</text>
</g>
<!-- Int -->
<g id="node2" class="node">
<title>Int</title>
<polygon fill="none" stroke="#000000" points="295.5203,-74 241.5203,-74 241.5203,-38 295.5203,-38 295.5203,-74"/>
<text text-anchor="middle" x="268.5203" y="-51.8" font-family="Liberation Mono" font-size="14.00" fill="#000000">Int</text>
</g>
<!-- Word -->
<g id="node3" class="node">
<title>Word</title>
<polygon fill="none" stroke="#000000" points="223.5203,-74 169.5203,-74 169.5203,-38 223.5203,-38 223.5203,-74"/>
<text text-anchor="middle" x="196.5203" y="-51.8" font-family="Liberation Mono" font-size="14.00" fill="#000000">Word</text>
</g>
<!-- Float -->
<g id="node4" class="node">
<title>Float</title>
<polygon fill="none" stroke="#000000" points="379.5203,-74 325.5203,-74 325.5203,-38 379.5203,-38 379.5203,-74"/>
<text text-anchor="middle" x="352.5203" y="-51.8" font-family="Liberation Mono" font-size="14.00" fill="#000000">Float</text>
</g>
<!-- Double -->
<g id="node5" class="node">
<title>Double</title>
<polygon fill="none" stroke="#000000" points="455.2325,-74 397.8081,-74 397.8081,-38 455.2325,-38 455.2325,-74"/>
<text text-anchor="middle" x="426.5203" y="-51.8" font-family="Liberation Mono" font-size="14.00" fill="#000000">Double</text>
</g>
<!-- Integer -->
<g id="node6" class="node">
<title>Integer</title>
<polygon fill="none" stroke="#000000" points="129.1625,-74 73.8782,-74 73.8782,-38 129.1625,-38 129.1625,-74"/>
<text text-anchor="middle" x="101.5203" y="-51.8" font-family="Liberation Mono" font-size="14.00" fill="#000000">Integer</text>
</g>
<!-- Eq -->
<g id="node7" class="node">
<title>Eq</title>
<ellipse fill="#ffffff" stroke="#ffffff" cx="143.5203" cy="-532.8" rx="27" ry="18"/>
<text text-anchor="middle" x="143.5203" y="-528.6" font-family="Liberation Mono" font-size="14.00" fill="#000000">Eq</text>
</g>
<!-- Ord -->
<g id="node8" class="node">
<title>Ord</title>
<ellipse fill="#ffffff" stroke="#ffffff" cx="143.5203" cy="-456" rx="27" ry="18"/>
<text text-anchor="middle" x="143.5203" y="-451.8" font-family="Liberation Mono" font-size="14.00" fill="#000000">Ord</text>
</g>
<!-- Eq&#45;&gt;Ord -->
<g id="edge1" class="edge">
<title>Eq-&gt;Ord</title>
<path fill="none" stroke="#000000" d="M143.5203,-514.5995C143.5203,-505.5132 143.5203,-494.3176 143.5203,-484.1549"/>
<polygon fill="#000000" stroke="#000000" points="147.0204,-484.0698 143.5203,-474.0699 140.0204,-484.0699 147.0204,-484.0698"/>
</g>
<!-- Ord&#45;&gt;Bool -->
<g id="edge12" class="edge">
<title>Ord-&gt;Bool</title>
<path fill="none" stroke="#000000" d="M146.0319,-438.0365C146.6459,-432.8705 147.2142,-427.2213 147.5203,-422 149.3462,-390.8535 149.2362,-380.9638 147.5613,-347.3459"/>
<polygon fill="#000000" stroke="#000000" points="151.0488,-347.0076 147.0477,-337.1973 144.0577,-347.3614 151.0488,-347.0076"/>
</g>
<!-- Ord&#45;&gt;Integer -->
<g id="edge15" class="edge">
<title>Ord-&gt;Integer</title>
<path fill="none" stroke="#000000" d="M117.05,-451.6676C87.282,-446.1923 41.7476,-435.7929 31.5203,-422 -27.9219,-341.8342 9.6943,-225.3802 48.9793,-145.4826"/>
<polygon fill="#000000" stroke="#000000" points="52.1735,-146.9206 53.5233,-136.4121 45.915,-143.7852 52.1735,-146.9206"/>
</g>
<!-- Real -->
<g id="node12" class="node">
<title>Real</title>
<ellipse fill="#ffffff" stroke="#ffffff" cx="328.5203" cy="-371.2" rx="28.9696" ry="18"/>
<text text-anchor="middle" x="328.5203" y="-367" font-family="Liberation Mono" font-size="14.00" fill="#000000">Real</text>
</g>
<!-- Ord&#45;&gt;Real -->
<g id="edge11" class="edge">
<title>Ord-&gt;Real</title>
<path fill="none" stroke="#000000" d="M160.757,-441.7877C167.205,-437.2332 174.8367,-432.6798 182.5203,-430 222.9468,-415.9008 239.7517,-440.1681 278.5203,-422 290.9513,-416.1745 301.9979,-405.8581 310.5256,-396.0371"/>
<polygon fill="#000000" stroke="#000000" points="313.4621,-397.9745 317.0715,-388.0134 308.0381,-393.5494 313.4621,-397.9745"/>
</g>
<!-- Bounded -->
<g id="node9" class="node">
<title>Bounded</title>
<ellipse fill="#ffffff" stroke="#ffffff" cx="89.5203" cy="-371.2" rx="45.8118" ry="18"/>
<text text-anchor="middle" x="89.5203" y="-367" font-family="Liberation Mono" font-size="14.00" fill="#000000">Bounded</text>
</g>
<!-- Bounded&#45;&gt;Bool -->
<g id="edge14" class="edge">
<title>Bounded-&gt;Bool</title>
<path fill="none" stroke="#000000" d="M100.0433,-353.6347C101.4744,-351.2459 103.0038,-348.693 104.6004,-346.0279"/>
<polygon fill="#000000" stroke="#000000" points="107.7529,-347.576 109.8897,-337.1989 101.748,-343.9786 107.7529,-347.576"/>
</g>
<!-- Bounded&#45;&gt;Word -->
<g id="edge18" class="edge">
<title>Bounded-&gt;Word</title>
<path fill="none" stroke="#000000" d="M89.0124,-352.8586C88.8831,-329.815 90.354,-289.3027 100.5203,-256.4 112.2064,-218.5787 126.0803,-213.9367 143.5203,-178.4 147.5855,-170.1166 151.6693,-161.4464 155.6673,-152.7105"/>
<polygon fill="#000000" stroke="#000000" points="158.8578,-154.1494 159.7982,-143.5964 152.4821,-151.2596 158.8578,-154.1494"/>
</g>
<!-- Enum -->
<g id="node10" class="node">
<title>Enum</title>
<ellipse fill="#ffffff" stroke="#ffffff" cx="235.5203" cy="-371.2" rx="34.2104" ry="18"/>
<text text-anchor="middle" x="235.5203" y="-367" font-family="Liberation Mono" font-size="14.00" fill="#000000">Enum</text>
</g>
<!-- Enum&#45;&gt;Bool -->
<g id="edge13" class="edge">
<title>Enum-&gt;Bool</title>
<path fill="none" stroke="#000000" d="M211.5984,-358.2345C203.9736,-353.6336 195.5701,-348.0662 186.0365,-340.0296"/>
<polygon fill="#000000" stroke="#000000" points="188.3282,-337.384 178.5199,-333.3779 183.6892,-342.6261 188.3282,-337.384"/>
</g>
<!-- Enum&#45;&gt;Float -->
<g id="edge16" class="edge">
<title>Enum-&gt;Float</title>
<path fill="none" stroke="#000000" d="M258.5711,-357.7587C268.1336,-352.8682 279.5429,-347.8855 290.5203,-345.2 301.8071,-342.4388 491.4627,-345.572 499.5203,-337.2 524.423,-311.3259 515.2104,-288.7022 499.5203,-256.4 477.5329,-211.1331 454.499,-210.8625 410.5203,-186.4 405.4059,-183.5552 401.3379,-183.7791 397.4897,-183.1698"/>
<polygon fill="#000000" stroke="#000000" points="398.9929,-180.0051 388.5203,-178.4 395.7061,-186.1856 398.9929,-180.0051"/>
</g>
<!-- Integral -->
<g id="node11" class="node">
<title>Integral</title>
<ellipse fill="#ffffff" stroke="#ffffff" cx="235.5203" cy="-284.4" rx="41.1277" ry="18"/>
<text text-anchor="middle" x="235.5203" y="-280.2" font-family="Liberation Mono" font-size="14.00" fill="#000000">Integral</text>
</g>
<!-- Enum&#45;&gt;Integral -->
<g id="edge2" class="edge">
<title>Enum-&gt;Integral</title>
<path fill="none" stroke="#000000" d="M235.5203,-352.792C235.5203,-341.0903 235.5203,-325.7117 235.5203,-312.5016"/>
<polygon fill="#000000" stroke="#000000" points="239.0204,-312.4838 235.5203,-302.4839 232.0204,-312.4839 239.0204,-312.4838"/>
</g>
<!-- Integral&#45;&gt;Int -->
<g id="edge19" class="edge">
<title>Integral-&gt;Int</title>
<path fill="none" stroke="#000000" d="M238.1651,-266.0952C242.7253,-234.5329 252.2686,-168.4819 259.4447,-118.8146"/>
<polygon fill="#000000" stroke="#000000" points="262.9257,-119.1971 260.8917,-108.7993 255.9976,-118.196 262.9257,-119.1971"/>
</g>
<!-- Integral&#45;&gt;Integer -->
<g id="edge20" class="edge">
<title>Integral-&gt;Integer</title>
<path fill="none" stroke="#000000" d="M220.6132,-267.275C203.4585,-247.0128 175.1349,-211.7999 155.5203,-178.4 144.3969,-159.4589 134.1223,-137.8077 125.5875,-118.0338"/>
<polygon fill="#000000" stroke="#000000" points="128.7963,-116.6357 121.6669,-108.7985 122.3529,-119.3711 128.7963,-116.6357"/>
</g>
<!-- Real&#45;&gt;Integral -->
<g id="edge3" class="edge">
<title>Real-&gt;Integral</title>
<path fill="none" stroke="#000000" d="M309.6271,-357.2036C301.9429,-351.2721 293.1048,-344.1369 285.5203,-337.2 276.0096,-328.5012 266.1324,-318.3431 257.6938,-309.2731"/>
<polygon fill="#000000" stroke="#000000" points="260.0343,-306.6471 250.6937,-301.6467 254.8773,-311.3806 260.0343,-306.6471"/>
</g>
<!-- RealFrac -->
<g id="node16" class="node">
<title>RealFrac</title>
<ellipse fill="#ffffff" stroke="#ffffff" cx="340.5203" cy="-284.4" rx="45.781" ry="18"/>
<text text-anchor="middle" x="340.5203" y="-280.2" font-family="Liberation Mono" font-size="14.00" fill="#000000">RealFrac</text>
</g>
<!-- Real&#45;&gt;RealFrac -->
<g id="edge6" class="edge">
<title>Real-&gt;RealFrac</title>
<path fill="none" stroke="#000000" d="M331.0067,-353.215C332.621,-341.5387 334.7591,-326.0729 336.5994,-312.7611"/>
<polygon fill="#000000" stroke="#000000" points="340.0933,-313.0457 337.9958,-302.6606 333.1592,-312.0871 340.0933,-313.0457"/>
</g>
<!-- Num -->
<g id="node13" class="node">
<title>Num</title>
<ellipse fill="#ffffff" stroke="#ffffff" cx="432.5203" cy="-456" rx="30.1977" ry="18"/>
<text text-anchor="middle" x="432.5203" y="-451.8" font-family="Liberation Mono" font-size="14.00" fill="#000000">Num</text>
</g>
<!-- Num&#45;&gt;Double -->
<g id="edge17" class="edge">
<title>Num-&gt;Double</title>
<path fill="none" stroke="#000000" d="M458.3363,-446.1156C469.873,-440.561 482.8042,-432.5874 491.5203,-422 539.0109,-364.3136 536.7751,-329.3306 520.5203,-256.4 513.9399,-226.8754 502.5191,-196.5609 489.8568,-168.7334"/>
<polygon fill="#000000" stroke="#000000" points="492.9069,-166.9916 485.5202,-159.3964 486.5583,-169.9403 492.9069,-166.9916"/>
</g>
<!-- Num&#45;&gt;Real -->
<g id="edge10" class="edge">
<title>Num-&gt;Real</title>
<path fill="none" stroke="#000000" d="M408.7061,-444.5475C397.4827,-438.5971 384.2379,-430.7439 373.5203,-422 364.0145,-414.2447 354.7968,-404.394 347.2054,-395.4355"/>
<polygon fill="#000000" stroke="#000000" points="349.7791,-393.0543 340.7294,-387.5448 344.3681,-397.4952 349.7791,-393.0543"/>
</g>
<!-- Fractional -->
<g id="node14" class="node">
<title>Fractional</title>
<ellipse fill="#ffffff" stroke="#ffffff" cx="432.5203" cy="-371.2" rx="50.3761" ry="18"/>
<text text-anchor="middle" x="432.5203" y="-367" font-family="Liberation Mono" font-size="14.00" fill="#000000">Fractional</text>
</g>
<!-- Num&#45;&gt;Fractional -->
<g id="edge4" class="edge">
<title>Num-&gt;Fractional</title>
<path fill="none" stroke="#000000" d="M432.5203,-437.5997C432.5203,-426.4112 432.5203,-411.8983 432.5203,-399.2954"/>
<polygon fill="#000000" stroke="#000000" points="436.0204,-399.2731 432.5203,-389.2731 429.0204,-399.2731 436.0204,-399.2731"/>
</g>
<!-- Floating -->
<g id="node15" class="node">
<title>Floating</title>
<ellipse fill="#ffffff" stroke="#ffffff" cx="447.5203" cy="-284.4" rx="43.4571" ry="18"/>
<text text-anchor="middle" x="447.5203" y="-280.2" font-family="Liberation Mono" font-size="14.00" fill="#000000">Floating</text>
</g>
<!-- Fractional&#45;&gt;Floating -->
<g id="edge5" class="edge">
<title>Fractional-&gt;Floating</title>
<path fill="none" stroke="#000000" d="M435.6283,-353.215C437.6597,-341.4603 440.3547,-325.8651 442.6655,-312.4933"/>
<polygon fill="#000000" stroke="#000000" points="446.1622,-312.812 444.4163,-302.362 439.2645,-311.6199 446.1622,-312.812"/>
</g>
<!-- Fractional&#45;&gt;RealFrac -->
<g id="edge7" class="edge">
<title>Fractional-&gt;RealFrac</title>
<path fill="none" stroke="#000000" d="M414.0034,-354.3305C408.0739,-348.8895 401.4976,-342.8142 395.5203,-337.2 385.4713,-327.7614 374.4949,-317.263 365.0093,-308.1295"/>
<polygon fill="#000000" stroke="#000000" points="367.3947,-305.5676 357.7678,-301.1435 362.5347,-310.6054 367.3947,-305.5676"/>
</g>
<!-- RealFloat -->
<g id="node17" class="node">
<title>RealFloat</title>
<ellipse fill="#ffffff" stroke="#ffffff" cx="352.5203" cy="-212.4" rx="48.6694" ry="18"/>
<text text-anchor="middle" x="352.5203" y="-208.2" font-family="Liberation Mono" font-size="14.00" fill="#000000">RealFloat</text>
</g>
<!-- Floating&#45;&gt;RealFloat -->
<g id="edge9" class="edge">
<title>Floating-&gt;RealFloat</title>
<path fill="none" stroke="#000000" d="M426.4368,-268.4209C413.3679,-258.516 396.3871,-245.6464 381.9974,-234.7405"/>
<polygon fill="#000000" stroke="#000000" points="383.9573,-231.8343 373.8735,-228.5834 379.7291,-237.4131 383.9573,-231.8343"/>
</g>
<!-- RealFrac&#45;&gt;RealFloat -->
<g id="edge8" class="edge">
<title>RealFrac-&gt;RealFloat</title>
<path fill="none" stroke="#000000" d="M343.5484,-266.2314C344.8318,-258.531 346.3579,-249.3743 347.7842,-240.8166"/>
<polygon fill="#000000" stroke="#000000" points="351.2598,-241.2526 349.4515,-230.8133 344.355,-240.1018 351.2598,-241.2526"/>
</g>
<!-- RealFloat&#45;&gt;Float -->
<g id="edge21" class="edge">
<title>RealFloat-&gt;Float</title>
<path fill="none" stroke="#000000" d="M352.5203,-194.1528C352.5203,-175.6935 352.5203,-146.0956 352.5203,-119.0219"/>
<polygon fill="#000000" stroke="#000000" points="356.0204,-118.7977 352.5203,-108.7978 349.0204,-118.7978 356.0204,-118.7977"/>
</g>
</g>
</svg>