<?xml version="1.0" encoding="UTF-8" standalone="no"?>
<!DOCTYPE svg PUBLIC "-//W3C//DTD SVG 1.1//EN" "http://www.w3.org/Graphics/SVG/1.1/DTD/svg11.dtd">
<!-- Generated by graphviz version 2.40.1 (20161225.0304)
 -->
<!-- Title: G Pages: 1 -->
<svg width="2801pt" height="1685pt" viewBox="0.00 0.00 2801.33 1684.80" xmlns="http://www.w3.org/2000/svg" xmlns:xlink="http://www.w3.org/1999/xlink">
<g id="graph0" class="graph" transform="scale(1 1) rotate(0) translate(4 1680.8)">
<title>G</title>
<polygon fill="#ffffff" stroke="transparent" points="-4,4 -4,-1680.8 2797.3333,-1680.8 2797.3333,4 -4,4"/>
<g id="clust1" class="cluster">
<title>cluster_bool</title>
<polygon fill="none" stroke="#000000" points="20.5204,-387 20.5204,-497.8 287.285,-497.8 287.285,-387 20.5204,-387"/>
<text text-anchor="middle" x="153.9027" y="-481.2" font-family="Liberation Mono" font-size="14.00" fill="#000000">Boolean type</text>
</g>
<g id="clust2" class="cluster">
<title>cluster_finite</title>
<polygon fill="none" stroke="#000000" points="307.8053,-362 307.8053,-547.6 1598.0227,-547.6 1598.0227,-362 307.8053,-362"/>
<text text-anchor="middle" x="952.914" y="-531" font-family="Liberation Mono" font-size="14.00" fill="#000000">Finite Numbers</text>
</g>
<g id="clust3" class="cluster">
<title>cluster_finite_no</title>
<polygon fill="none" stroke="#000000" points="371.9314,-387 371.9314,-497.8 1008.0624,-497.8 1008.0624,-387 371.9314,-387"/>
<text text-anchor="middle" x="689.9969" y="-481.2" font-family="Liberation Mono" font-size="14.00" fill="#000000">Non Floating</text>
</g>
<g id="clust5" class="cluster">
<title>cluster_finite_yes</title>
<polygon fill="none" stroke="#000000" points="1072.1886,-387 1072.1886,-497.8 1533.8965,-497.8 1533.8965,-387 1072.1886,-387"/>
<text text-anchor="middle" x="1303.0425" y="-481.2" font-family="Liberation Mono" font-size="14.00" fill="#000000">Floating</text>
</g>
<g id="clust7" class="cluster">
<title>cluster_infinite</title>
<polygon fill="none" stroke="#000000" points="2485.528,-387 2485.528,-497.8 2772.813,-497.8 2772.813,-387 2485.528,-387"/>
<text text-anchor="middle" x="2629.1705" y="-481.2" font-family="Liberation Mono" font-size="14.00" fill="#000000">Infinite Numbers</text>
</g>
<g id="clust8" class="cluster">
<title>cluster_ord</title>
<polygon fill="#d3d3d3" stroke="#d3d3d3" points="1251.7417,-1196 1251.7417,-1668.8 1539.0266,-1668.8 1539.0266,-1196 1251.7417,-1196"/>
<text text-anchor="middle" x="1395.3841" y="-1652.2" font-family="Liberation Mono" font-size="14.00" fill="#000000">Ordering Classes</text>
</g>
<g id="clust9" class="cluster">
<title>cluster_bounds</title>
<polygon fill="#d3d3d3" stroke="#d3d3d3" points="551.4845,-800 551.4845,-876.8 828.5093,-876.8 828.5093,-800 551.4845,-800"/>
<text text-anchor="middle" x="689.9969" y="-860.2" font-family="Liberation Mono" font-size="14.00" fill="#000000">Bounds Classes</text>
</g>
<g id="clust10" class="cluster">
<title>cluster_enum</title>
<polygon fill="#d3d3d3" stroke="#d3d3d3" points="1641.6284,-8 1641.6284,-1272.8 2441.9223,-1272.8 2441.9223,-8 1641.6284,-8"/>
<text text-anchor="middle" x="2041.7753" y="-1256.2" font-family="Liberation Mono" font-size="14.00" fill="#000000">Numeric Classes</text>
</g>
<!-- Bool -->
<g id="node1" class="node">
<title>Bool</title>
<polygon fill="none" stroke="#000000" points="180.7845,-448 126.7845,-448 126.7845,-412 180.7845,-412 180.7845,-448"/>
<text text-anchor="middle" x="153.7845" y="-425.8" font-family="Liberation Mono" font-size="14.00" fill="#000000">Bool</text>
</g>
<!-- Int -->
<g id="node2" class="node">
<title>Int</title>
<polygon fill="none" stroke="#000000" points="901.7845,-448 847.7845,-448 847.7845,-412 901.7845,-412 901.7845,-448"/>
<text text-anchor="middle" x="874.7845" y="-425.8" font-family="Liberation Mono" font-size="14.00" fill="#000000">Int</text>
</g>
<!-- Word -->
<g id="node3" class="node">
<title>Word</title>
<polygon fill="none" stroke="#000000" points="716.7845,-448 662.7845,-448 662.7845,-412 716.7845,-412 716.7845,-448"/>
<text text-anchor="middle" x="689.7845" y="-425.8" font-family="Liberation Mono" font-size="14.00" fill="#000000">Word</text>
</g>
<!-- Char -->
<g id="node4" class="node">
<title>Char</title>
<polygon fill="none" stroke="#000000" points="532.7845,-448 478.7845,-448 478.7845,-412 532.7845,-412 532.7845,-448"/>
<text text-anchor="middle" x="505.7845" y="-425.8" font-family="Liberation Mono" font-size="14.00" fill="#000000">Char</text>
</g>
<!-- Float -->
<g id="node5" class="node">
<title>Float</title>
<polygon fill="none" stroke="#000000" points="1427.7845,-448 1373.7845,-448 1373.7845,-412 1427.7845,-412 1427.7845,-448"/>
<text text-anchor="middle" x="1400.7845" y="-425.8" font-family="Liberation Mono" font-size="14.00" fill="#000000">Float</text>
</g>
<!-- Double -->
<g id="node6" class="node">
<title>Double</title>
<polygon fill="none" stroke="#000000" points="1239.4967,-448 1182.0723,-448 1182.0723,-412 1239.4967,-412 1239.4967,-448"/>
<text text-anchor="middle" x="1210.7845" y="-425.8" font-family="Liberation Mono" font-size="14.00" fill="#000000">Double</text>
</g>
<!-- Integer -->
<g id="node7" class="node">
<title>Integer</title>
<polygon fill="none" stroke="#000000" points="2649.4267,-448 2594.1424,-448 2594.1424,-412 2649.4267,-412 2649.4267,-448"/>
<text text-anchor="middle" x="2621.7845" y="-425.8" font-family="Liberation Mono" font-size="14.00" fill="#000000">Integer</text>
</g>
<!-- Eq -->
<g id="node8" class="node">
<title>Eq</title>
<ellipse fill="#ffffff" stroke="#ffffff" cx="1395.7845" cy="-1618" rx="27" ry="18"/>
<text text-anchor="middle" x="1395.7845" y="-1613.8" font-family="Liberation Mono" font-size="14.00" fill="#000000">Eq</text>
</g>
<!-- Ord -->
<g id="node9" class="node">
<title>Ord</title>
<ellipse fill="#ffffff" stroke="#ffffff" cx="1395.7845" cy="-1222" rx="27" ry="18"/>
<text text-anchor="middle" x="1395.7845" y="-1217.8" font-family="Liberation Mono" font-size="14.00" fill="#000000">Ord</text>
</g>
<!-- Eq&#45;&gt;Ord -->
<g id="edge1" class="edge">
<title>Eq-&gt;Ord</title>
<path fill="none" stroke="#000000" d="M1395.7845,-1599.9557C1395.7845,-1537.0782 1395.7845,-1327.2839 1395.7845,-1250.4832"/>
<polygon fill="#000000" stroke="#000000" points="1399.2846,-1250.1503 1395.7845,-1240.1503 1392.2846,-1250.1503 1399.2846,-1250.1503"/>
</g>
<!-- Ord&#45;&gt;Bool -->
<g id="edge12" class="edge">
<title>Ord-&gt;Bool</title>
<path fill="none" stroke="#000000" d="M1370.1102,-1216.1598C1261.9234,-1190.655 835.5243,-1081.072 547.7845,-876.8 371.5291,-751.6729 220.4527,-533.0468 170.924,-456.9936"/>
<polygon fill="#000000" stroke="#000000" points="173.7623,-454.9373 165.3924,-448.4415 167.8846,-458.7391 173.7623,-454.9373"/>
</g>
<!-- Ord&#45;&gt;Word -->
<g id="edge15" class="edge">
<title>Ord-&gt;Word</title>
<path fill="none" stroke="#000000" d="M1381.6819,-1206.1795C1293.9195,-1107.7265 822.7244,-579.1337 712.7461,-455.7586"/>
<polygon fill="#000000" stroke="#000000" points="715.2992,-453.3628 706.0323,-448.227 710.0739,-458.0207 715.2992,-453.3628"/>
</g>
<!-- Ord&#45;&gt;Float -->
<g id="edge19" class="edge">
<title>Ord-&gt;Float</title>
<path fill="none" stroke="#000000" d="M1395.8983,-1203.9699C1396.5502,-1100.7176 1399.8084,-584.6211 1400.6074,-458.0559"/>
<polygon fill="#000000" stroke="#000000" points="1404.1076,-458.0239 1400.6709,-448.0019 1397.1077,-457.9796 1404.1076,-458.0239"/>
</g>
<!-- Ord&#45;&gt;Integer -->
<g id="edge23" class="edge">
<title>Ord-&gt;Integer</title>
<path fill="none" stroke="#000000" d="M1421.5842,-1216.6287C1567.2035,-1185.8682 2285.489,-1028.116 2445.7845,-876.8 2572.0112,-757.6444 2609.3342,-536.7641 2618.8706,-458.4443"/>
<polygon fill="#000000" stroke="#000000" points="2622.3642,-458.7009 2620.0381,-448.3646 2615.4107,-457.8954 2622.3642,-458.7009"/>
</g>
<!-- Real -->
<g id="node13" class="node">
<title>Real</title>
<ellipse fill="#ffffff" stroke="#ffffff" cx="1956.7845" cy="-826" rx="28.9696" ry="18"/>
<text text-anchor="middle" x="1956.7845" y="-821.8" font-family="Liberation Mono" font-size="14.00" fill="#000000">Real</text>
</g>
<!-- Ord&#45;&gt;Real -->
<g id="edge11" class="edge">
<title>Ord-&gt;Real</title>
<path fill="none" stroke="#000000" d="M1414.45,-1208.8244C1497.129,-1150.4627 1830.6103,-915.0641 1929.202,-845.47"/>
<polygon fill="#000000" stroke="#000000" points="1931.3223,-848.2575 1937.4736,-839.6312 1927.2855,-842.5387 1931.3223,-848.2575"/>
</g>
<!-- Bounded -->
<g id="node10" class="node">
<title>Bounded</title>
<ellipse fill="#ffffff" stroke="#ffffff" cx="689.7845" cy="-826" rx="45.8118" ry="18"/>
<text text-anchor="middle" x="689.7845" y="-821.8" font-family="Liberation Mono" font-size="14.00" fill="#000000">Bounded</text>
</g>
<!-- Bounded&#45;&gt;Bool -->
<g id="edge14" class="edge">
<title>Bounded-&gt;Bool</title>
<path fill="none" stroke="#000000" d="M668.1088,-809.9859C584.9447,-748.5437 285.9659,-527.6564 186.3427,-454.0542"/>
<polygon fill="#000000" stroke="#000000" points="188.2731,-451.1288 178.1503,-448.0016 184.1135,-456.7589 188.2731,-451.1288"/>
</g>
<!-- Bounded&#45;&gt;Word -->
<g id="edge18" class="edge">
<title>Bounded-&gt;Word</title>
<path fill="none" stroke="#000000" d="M689.7845,-807.9557C689.7845,-745.0782 689.7845,-535.2839 689.7845,-458.4832"/>
<polygon fill="#000000" stroke="#000000" points="693.2846,-458.1503 689.7845,-448.1503 686.2846,-458.1503 693.2846,-458.1503"/>
</g>
<!-- Bounded&#45;&gt;Float -->
<g id="edge22" class="edge">
<title>Bounded-&gt;Float</title>
<path fill="none" stroke="#000000" d="M721.5381,-812.815C808.7205,-776.0663 1057.983,-667.2973 1248.7845,-547.6 1294.2536,-519.0755 1342.6017,-479.9603 1372.2542,-454.8298"/>
<polygon fill="#000000" stroke="#000000" points="1374.7679,-457.2859 1380.104,-448.1329 1370.2247,-451.9605 1374.7679,-457.2859"/>
</g>
<!-- Enum -->
<g id="node11" class="node">
<title>Enum</title>
<ellipse fill="#ffffff" stroke="#ffffff" cx="1749.7845" cy="-826" rx="34.2104" ry="18"/>
<text text-anchor="middle" x="1749.7845" y="-821.8" font-family="Liberation Mono" font-size="14.00" fill="#000000">Enum</text>
</g>
<!-- Enum&#45;&gt;Bool -->
<g id="edge13" class="edge">
<title>Enum-&gt;Bool</title>
<path fill="none" stroke="#000000" d="M1716.1261,-823.014C1559.1003,-808.3097 884.3915,-736.5484 367.7845,-547.6 301.019,-523.1806 229.8961,-480.291 188.7739,-453.6078"/>
<polygon fill="#000000" stroke="#000000" points="190.504,-450.5571 180.22,-448.0096 186.6707,-456.4143 190.504,-450.5571"/>
</g>
<!-- Enum&#45;&gt;Word -->
<g id="edge16" class="edge">
<title>Enum-&gt;Word</title>
<path fill="none" stroke="#000000" d="M1717.0575,-820.5466C1595.2237,-799.3276 1158.5422,-715.0345 838.7845,-547.6 791.0177,-522.5879 743.4447,-481.5097 715.3299,-455.1192"/>
<polygon fill="#000000" stroke="#000000" points="717.5926,-452.4411 707.9321,-448.0907 712.7712,-457.5159 717.5926,-452.4411"/>
</g>
<!-- Enum&#45;&gt;Float -->
<g id="edge20" class="edge">
<title>Enum-&gt;Float</title>
<path fill="none" stroke="#000000" d="M1735.2327,-809.4885C1680.9637,-747.911 1490.0972,-531.3405 1423.7322,-456.0381"/>
<polygon fill="#000000" stroke="#000000" points="1426.2239,-453.5717 1416.9862,-448.3836 1420.9723,-458.2 1426.2239,-453.5717"/>
</g>
<!-- Enum&#45;&gt;Integer -->
<g id="edge24" class="edge">
<title>Enum-&gt;Integer</title>
<path fill="none" stroke="#000000" d="M1779.2537,-816.6795C1877.0718,-785.231 2198.7956,-677.689 2445.7845,-547.6 2498.8392,-519.6561 2555.7637,-479.5576 2590.0705,-454.1516"/>
<polygon fill="#000000" stroke="#000000" points="2592.3632,-456.808 2598.2891,-448.0254 2588.1797,-451.1957 2592.3632,-456.808"/>
</g>
<!-- Integral -->
<g id="node12" class="node">
<title>Integral</title>
<ellipse fill="#ffffff" stroke="#ffffff" cx="1767.7845" cy="-430" rx="41.1277" ry="18"/>
<text text-anchor="middle" x="1767.7845" y="-425.8" font-family="Liberation Mono" font-size="14.00" fill="#000000">Integral</text>
</g>
<!-- Enum&#45;&gt;Integral -->
<g id="edge2" class="edge">
<title>Enum-&gt;Integral</title>
<path fill="none" stroke="#000000" d="M1750.6047,-807.9557C1753.4628,-745.0782 1762.9989,-535.2839 1766.4898,-458.4832"/>
<polygon fill="#000000" stroke="#000000" points="1770.0017,-458.2989 1766.9595,-448.1503 1763.0089,-457.981 1770.0017,-458.2989"/>
</g>
<!-- Real&#45;&gt;Integral -->
<g id="edge3" class="edge">
<title>Real-&gt;Integral</title>
<path fill="none" stroke="#000000" d="M1948.5419,-808.7297C1918.8276,-746.4712 1817.0504,-533.2237 1780.7644,-457.196"/>
<polygon fill="#000000" stroke="#000000" points="1783.7514,-455.3287 1776.2854,-447.8114 1777.4341,-458.3438 1783.7514,-455.3287"/>
</g>
<!-- RealFrac -->
<g id="node17" class="node">
<title>RealFrac</title>
<ellipse fill="#ffffff" stroke="#ffffff" cx="2036.7845" cy="-430" rx="45.781" ry="18"/>
<text text-anchor="middle" x="2036.7845" y="-425.8" font-family="Liberation Mono" font-size="14.00" fill="#000000">RealFrac</text>
</g>
<!-- Real&#45;&gt;RealFrac -->
<g id="edge6" class="edge">
<title>Real-&gt;RealFrac</title>
<path fill="none" stroke="#000000" d="M1960.4298,-807.9557C1973.1584,-744.9493 2015.6889,-534.4235 2031.1254,-458.0128"/>
<polygon fill="#000000" stroke="#000000" points="2034.5682,-458.6454 2033.1178,-448.1503 2027.7068,-457.2592 2034.5682,-458.6454"/>
</g>
<!-- Num -->
<g id="node14" class="node">
<title>Num</title>
<ellipse fill="#ffffff" stroke="#ffffff" cx="1956.7845" cy="-1222" rx="30.1977" ry="18"/>
<text text-anchor="middle" x="1956.7845" y="-1217.8" font-family="Liberation Mono" font-size="14.00" fill="#000000">Num</text>
</g>
<!-- Num&#45;&gt;Word -->
<g id="edge17" class="edge">
<title>Num-&gt;Word</title>
<path fill="none" stroke="#000000" d="M1934.0662,-1209.6987C1816.1213,-1145.5497 1262.8015,-841.1043 838.7845,-547.6 795.4411,-517.5977 748.089,-479.174 718.6606,-454.5671"/>
<polygon fill="#000000" stroke="#000000" points="720.7627,-451.7619 710.8538,-448.0115 716.2612,-457.1226 720.7627,-451.7619"/>
</g>
<!-- Num&#45;&gt;Float -->
<g id="edge21" class="edge">
<title>Num-&gt;Float</title>
<path fill="none" stroke="#000000" d="M1944.4,-1205.2304C1907.6989,-1155.4637 1796.4808,-1004.1441 1706.7845,-876.8 1595.6437,-719.0106 1465.9825,-526.9769 1418.9696,-457.0814"/>
<polygon fill="#000000" stroke="#000000" points="1421.6303,-454.7658 1413.1463,-448.4197 1415.8211,-458.6714 1421.6303,-454.7658"/>
</g>
<!-- Num&#45;&gt;Integer -->
<g id="edge25" class="edge">
<title>Num-&gt;Integer</title>
<path fill="none" stroke="#000000" d="M1984.0994,-1213.7841C2075.938,-1184.6749 2375.8672,-1077.2837 2519.7845,-876.8 2615.7501,-743.1154 2623.2295,-533.8008 2622.5623,-458.3236"/>
<polygon fill="#000000" stroke="#000000" points="2626.0599,-458.1315 2622.4142,-448.1837 2619.0607,-458.2337 2626.0599,-458.1315"/>
</g>
<!-- Num&#45;&gt;Real -->
<g id="edge10" class="edge">
<title>Num-&gt;Real</title>
<path fill="none" stroke="#000000" d="M1956.7845,-1203.9557C1956.7845,-1141.0782 1956.7845,-931.2839 1956.7845,-854.4832"/>
<polygon fill="#000000" stroke="#000000" points="1960.2846,-854.1503 1956.7845,-844.1503 1953.2846,-854.1503 1960.2846,-854.1503"/>
</g>
<!-- Fractional -->
<g id="node15" class="node">
<title>Fractional</title>
<ellipse fill="#ffffff" stroke="#ffffff" cx="2205.7845" cy="-826" rx="50.3761" ry="18"/>
<text text-anchor="middle" x="2205.7845" y="-821.8" font-family="Liberation Mono" font-size="14.00" fill="#000000">Fractional</text>
</g>
<!-- Num&#45;&gt;Fractional -->
<g id="edge4" class="edge">
<title>Num-&gt;Fractional</title>
<path fill="none" stroke="#000000" d="M1967.4837,-1204.9844C2006.5734,-1142.8177 2141.8442,-927.6882 2189.2303,-852.3272"/>
<polygon fill="#000000" stroke="#000000" points="2192.2009,-854.178 2194.561,-843.8494 2186.275,-850.4519 2192.2009,-854.178"/>
</g>
<!-- Floating -->
<g id="node16" class="node">
<title>Floating</title>
<ellipse fill="#ffffff" stroke="#ffffff" cx="2310.7845" cy="-430" rx="43.4571" ry="18"/>
<text text-anchor="middle" x="2310.7845" y="-425.8" font-family="Liberation Mono" font-size="14.00" fill="#000000">Floating</text>
</g>
<!-- Fractional&#45;&gt;Floating -->
<g id="edge5" class="edge">
<title>Fractional-&gt;Floating</title>
<path fill="none" stroke="#000000" d="M2210.569,-807.9557C2227.2752,-744.9493 2283.0965,-534.4235 2303.3569,-458.0128"/>
<polygon fill="#000000" stroke="#000000" points="2306.792,-458.7133 2305.9719,-448.1503 2300.0258,-456.9192 2306.792,-458.7133"/>
</g>
<!-- Fractional&#45;&gt;RealFrac -->
<g id="edge7" class="edge">
<title>Fractional-&gt;RealFrac</title>
<path fill="none" stroke="#000000" d="M2198.0838,-807.9557C2171.1397,-744.8205 2080.9813,-533.5618 2048.5401,-457.5457"/>
<polygon fill="#000000" stroke="#000000" points="2051.6748,-455.9739 2044.5305,-448.1503 2045.2366,-458.7216 2051.6748,-455.9739"/>
</g>
<!-- RealFloat -->
<g id="node18" class="node">
<title>RealFloat</title>
<ellipse fill="#ffffff" stroke="#ffffff" cx="2164.7845" cy="-34" rx="48.6694" ry="18"/>
<text text-anchor="middle" x="2164.7845" y="-29.8" font-family="Liberation Mono" font-size="14.00" fill="#000000">RealFloat</text>
</g>
<!-- Floating&#45;&gt;RealFloat -->
<g id="edge9" class="edge">
<title>Floating-&gt;RealFloat</title>
<path fill="none" stroke="#000000" d="M2304.1318,-411.9557C2280.8547,-348.8205 2202.9664,-137.5618 2174.9402,-61.5457"/>
<polygon fill="#000000" stroke="#000000" points="2178.2195,-60.3222 2171.4763,-52.1503 2171.6517,-62.7437 2178.2195,-60.3222"/>
</g>
<!-- RealFrac&#45;&gt;RealFloat -->
<g id="edge8" class="edge">
<title>RealFrac-&gt;RealFloat</title>
<path fill="none" stroke="#000000" d="M2042.617,-411.9557C2062.9827,-348.9493 2131.0315,-138.4235 2155.7299,-62.0128"/>
<polygon fill="#000000" stroke="#000000" points="2159.1724,-62.7421 2158.9177,-52.1503 2152.5117,-60.5891 2159.1724,-62.7421"/>
</g>
</g>
</svg>